<svg viewBox="109 0 100 100" xmlns="http://www.w3.org/2000/svg" xmlns:xlink="http://www.w3.org/1999/xlink" overflow="hidden"><style>
.MsftOfcThm_Background1_Fill_v2 {
 fill:#FFFFFF; 
}
</style>
<g><path d="M138.2 33.6C142.1 31.9 141.1 29.4 142.8 28.5 143.9 27.9 144.7 28.8 145.4 29 145.3 29.4 145.3 29.8 145.2 30.3 144.9 35.8 149.1 40.5 154.6 40.8 160.1 41.1 164.8 36.9 165.1 31.4 165.4 25.9 161.2 21.2 155.7 20.9 152 20.7 148.7 22.5 146.8 25.3 146.3 24.3 145.3 22.8 143.7 22.3 140.9 21.4 137.7 22.7 136 24.9 134.3 27.1 134.3 31.5 129.6 32.5 127.6 33 134.7 35.2 138.2 33.6Z" class="MsftOfcThm_Background1_Fill_v2" fill="#FFFFFF"/><path d="M176.9 67.4C176.9 64.4 174.6 63 171.7 63L155.8 63 149 44.7 149 44.7C148 41.5 145 39.1 141.4 39.1 140.1 39.1 138.9 39.4 137.8 40L137.8 40C123.3 47.3 114.9 60.7 111.7 80.4L130.7 80.4C131.2 72.1 132.7 62.4 139.5 56.6L147.3 68.3 147.3 68.3C148.2 70 150 71.3 152 71.3L171.6 71.3C174.7 71.2 176.9 70.4 176.9 67.4Z" class="MsftOfcThm_Background1_Fill_v2" fill="#FFFFFF"/></g><path d="M181.5 76.3C181.1 75.5 179.2 72.3 175.3 72.3 170.9 72.3 169.1 76.4 169 76.5 168.9 76.8 168.9 77.2 169.1 77.4 169.3 77.7 169.6 77.9 169.9 77.9L180.6 77.9C180.6 77.9 180.6 77.9 180.6 77.9 181.2 77.9 181.6 77.5 181.6 76.9 181.7 76.7 181.6 76.4 181.5 76.3Z" class="MsftOfcThm_Background1_Fill_v2" fill="#FFFFFF"/><path d="M202.5 28.5C200.7 27.7 198.7 28.6 197.9 30.4L182.8 65.8C182 67.6 182.9 69.6 184.7 70.4 185.1 70.6 185.6 70.7 186.1 70.7 187.5 70.7 188.8 69.9 189.3 68.6L192 62.2 197.1 72.8 190 72.8C188.6 72.8 187.5 73.9 187.5 75.3 187.5 76.7 188.6 77.8 190 77.8L201.1 77.8C202 77.8 202.8 77.4 203.2 76.6 203.7 75.9 203.7 75 203.3 74.2L194.6 56 204.3 33.1C205.1 31.3 204.3 29.3 202.5 28.5Z" class="MsftOfcThm_Background1_Fill_v2" fill="#FFFFFF"/></svg>