<svg viewBox="0 0 100 100" xmlns="http://www.w3.org/2000/svg" xmlns:xlink="http://www.w3.org/1999/xlink" overflow="hidden"><path d="M52.293 22.854C51.764 22.854 51.231 22.961 50.709 23.172L22.889 34.433C22.167 34.724 20.75 35 19.972 35L9.5 35C7.019 35 5 37.019 5 39.5L5 62.5C5 64.98 7.019 67 9.5 67L19.665 67C20.498 67 21.979 67.24 22.77 67.504L50.812 76.861C51.261 77.01 51.716 77.087 52.169 77.087 53.249 77.087 54.237 76.662 54.954 75.891 55.63 75.164 56 74.182 56 73.123L56 26.738C56 24.523 54.406 22.854 52.293 22.854ZM19 62 10 62 10 40 19 40 19 62ZM51 71.652 24.352 62.76C24.242 62.723 24.12 62.69 24 62.655L24 39.333C24.271 39.249 24.532 39.161 24.764 39.067L51 28.447 51 71.652ZM65.503 35.164C64.331 33.993 62.432 33.993 61.262 35.164 60.089 36.335 60.089 38.235 61.262 39.407 64.094 42.24 65.655 46.003 65.655 50.003 65.655 54.003 64.094 57.766 61.262 60.6 60.089 61.77 60.089 63.669 61.262 64.841 61.846 65.427 62.616 65.721 63.382 65.721 64.148 65.721 64.917 65.427 65.503 64.841 69.471 60.875 71.654 55.606 71.654 50.003 71.654 44.4 69.471 39.13 65.503 35.164ZM74.186 28.805C73.014 27.634 71.114 27.634 69.944 28.805 68.772 29.977 68.772 31.876 69.944 33.048 74.477 37.581 76.973 43.602 76.973 50.002 76.973 56.402 74.477 62.424 69.944 66.957 68.772 68.128 68.772 70.027 69.944 71.199 70.53 71.785 71.298 72.078 72.065 72.078 72.832 72.078 73.6 71.785 74.186 71.199 79.852 65.533 82.973 58.005 82.973 50.002 82.973 41.999 79.852 34.471 74.186 28.805ZM82.867 22.446C81.695 21.275 79.795 21.275 78.625 22.446 77.453 23.617 77.453 25.517 78.625 26.689 84.857 32.921 88.292 41.201 88.292 50.002 88.292 58.803 84.857 67.082 78.625 73.314 77.453 74.486 77.453 76.384 78.625 77.556 79.21 78.142 79.979 78.435 80.746 78.435 81.513 78.435 82.281 78.142 82.867 77.556 90.234 70.191 94.292 60.404 94.292 50 94.292 39.599 90.234 29.812 82.867 22.446Z"/></svg>